{"glyphs":{":":{"x_min":0,"x_max":348,"ha":348,"o":"m 95 330 q 95 339 101 346 q 115 361 138 386 q 161 411 168 418 q 178 427 185 427 q 189 427 192 425 q 195 423 199 419 q 217 400 238 383 q 260 366 280 355 q 289 349 289 340 q 289 332 282 323 q 253 280 217 244 q 209 237 204 237 q 194 237 189 241 q 164 254 140 274 q 117 293 100 316 q 95 324 95 330 z m 95 78 q 95 87 101 94 q 110 105 135 132 q 161 160 168 167 q 178 176 185 176 q 189 176 192 174 q 195 172 199 168 q 216 149 238 133 q 259 116 280 104 q 289 97 289 87 q 289 84 286 79 q 284 74 282 71 q 252 26 217 -7 q 209 -14 204 -14 q 196 -14 189 -11 q 163 3 140 23 q 117 42 100 65 q 95 72 95 78 z"},"$":{"x_min":0,"x_max":501,"ha":501,"o":"m 40 29 q 40 24 43 20 q 46 17 53 13 q 88 -5 124 -12 q 160 -19 208 -19 q 218 -19 218 -37 q 218 -61 216 -104 q 214 -147 214 -169 q 214 -174 216 -177 q 217 -181 221 -181 q 225 -181 229 -178 q 247 -159 260 -142 q 264 -137 266 -132 q 267 -126 267 -117 l 267 -76 q 266 -39 266 -18 q 266 -14 268 -12 q 270 -11 273 -10 q 296 -1 312 8 q 328 17 343 31 q 385 69 409 113 q 434 158 434 193 q 434 280 372 317 q 343 335 312 352 l 263 381 q 261 382 260 385 q 259 387 258 389 q 258 392 258 393 l 258 488 q 258 493 258 494 q 259 496 261 496 q 278 496 332 473 q 336 471 340 471 q 347 471 352 476 q 362 490 381 519 q 399 549 408 564 q 410 568 412 573 q 413 577 414 580 q 414 582 411 585 q 409 588 407 590 q 381 602 341 609 q 302 617 262 617 q 260 617 259 618 q 258 618 258 620 l 258 669 q 258 677 256 680 q 255 683 250 683 q 247 683 245 681 l 231 667 q 229 664 223 658 q 217 652 214 648 q 211 644 210 640 q 209 636 209 631 l 209 614 q 209 610 208 608 q 206 606 202 604 q 160 590 136 571 q 111 553 90 523 q 69 496 56 466 q 43 437 43 412 q 43 377 55 347 q 67 318 92 302 q 113 288 165 261 l 214 234 q 219 231 219 226 l 219 172 q 219 161 219 119 q 219 114 217 113 q 216 111 212 111 q 196 111 170 120 q 144 129 125 139 q 120 141 113 141 q 111 141 106 138 q 99 129 65 74 q 48 45 44 40 q 44 39 42 35 q 40 32 40 29 z m 197 417 q 183 425 176 433 q 168 441 168 457 q 168 475 180 486 q 191 497 209 497 q 212 497 212 496 q 213 494 213 491 l 216 421 q 216 418 216 413 q 215 407 214 407 q 212 407 210 408 q 207 410 206 411 z m 262 159 q 261 189 261 203 q 261 210 264 210 q 267 210 280 202 q 298 191 308 177 q 317 162 317 149 q 317 133 305 122 q 293 111 267 111 q 265 111 264 112 q 263 113 263 118 q 263 130 262 159 z"},"?":{"x_min":0,"x_max":365,"ha":365,"o":"m 144 354 q 146 356 153 369 q 160 382 165 396 q 169 411 169 424 q 169 452 142 469 q 114 485 76 497 l 62 501 q 58 504 58 509 q 58 518 62 524 q 82 557 100 581 q 119 605 145 626 q 155 634 162 634 q 166 634 174 632 q 204 625 233 608 q 263 591 282 565 q 302 539 302 506 q 302 478 292 456 q 281 435 266 415 q 246 389 235 370 q 224 350 224 336 q 224 328 228 322 q 232 316 240 308 q 241 307 244 305 q 246 302 247 300 q 248 297 248 294 q 248 291 246 288 q 244 285 244 284 q 237 271 220 251 q 204 230 194 221 q 192 220 189 218 q 186 215 184 214 q 181 213 178 213 q 173 213 168 215 q 164 217 162 219 q 123 251 123 283 q 123 298 129 317 q 135 336 144 354 z m 98 79 q 98 87 104 94 q 113 106 138 133 q 163 161 171 168 q 180 177 188 177 q 191 177 194 175 q 197 172 201 169 q 219 150 240 134 q 261 117 281 104 q 291 99 291 88 q 291 85 289 80 q 287 74 285 72 q 254 26 219 -7 q 213 -14 205 -14 q 197 -14 192 -11 q 166 3 143 23 q 120 43 103 66 q 98 73 98 79 z"},"<":{"x_min":0,"x_max":505,"ha":505,"o":"m 73 246 q 93 237 154 210 q 215 183 247 167 q 289 147 334 125 q 378 104 395 95 q 404 92 407 92 q 412 92 416 99 l 440 149 q 441 154 441 157 q 441 161 440 163 q 438 165 433 167 q 415 175 362 198 q 309 222 286 233 l 168 289 l 286 345 q 309 356 362 379 q 415 403 433 411 q 438 413 440 415 q 442 417 442 420 q 442 422 440 428 l 418 474 q 415 480 412 483 q 409 485 406 485 q 401 485 395 482 q 378 474 334 452 q 289 431 247 411 q 215 395 154 368 q 93 340 73 332 q 69 330 67 327 q 65 324 65 318 l 65 263 q 65 255 67 252 q 69 248 73 246 z"},"'":{"x_min":0,"x_max":271,"ha":271,"o":"m 103 467 q 117 485 142 507 q 166 529 184 542 q 193 549 202 549 q 214 549 214 518 l 214 466 q 214 447 212 431 q 209 415 204 393 l 201 379 q 189 320 165 226 q 159 203 142 203 q 136 203 130 208 q 124 214 124 221 l 98 441 q 98 450 98 456 q 99 462 103 467 z"},"=":{"x_min":0,"x_max":505,"ha":505,"o":"m 432 415 q 438 415 441 412 q 444 410 444 401 l 444 349 q 444 343 441 339 q 438 336 430 336 q 411 336 353 338 q 294 339 269 339 q 239 339 170 338 q 100 336 77 336 q 68 336 65 339 q 62 343 62 349 l 62 401 q 62 408 65 411 q 68 415 77 415 q 99 415 165 413 q 232 412 267 412 q 298 412 356 413 q 413 415 432 415 z m 432 225 q 438 225 441 222 q 444 219 444 211 l 444 159 q 444 153 441 149 q 438 146 430 146 q 411 146 353 148 q 294 149 269 149 q 239 149 170 148 q 100 146 77 146 q 68 146 65 149 q 62 153 62 159 l 62 211 q 62 218 65 221 q 68 225 77 225 q 99 224 165 223 q 232 222 267 222 q 298 222 356 223 q 413 224 432 225 z"},"a":{"x_min":0,"x_max":500,"ha":500,"o":"m 305 63 q 264 22 222 4 q 179 -15 143 -15 q 115 -15 89 -2 q 64 11 48 37 q 32 62 32 98 q 32 129 43 152 q 54 176 74 196 q 92 214 115 227 q 139 241 184 254 q 229 267 304 278 l 304 335 q 304 368 290 387 q 276 405 242 405 q 227 405 212 398 q 197 392 188 379 q 179 366 179 349 l 179 343 q 180 337 152 327 q 125 317 92 309 q 60 302 52 304 l 42 330 q 58 368 96 400 q 134 432 186 450 q 238 469 292 469 q 356 469 389 437 q 421 404 421 352 l 421 116 q 421 78 441 78 q 448 78 457 81 q 466 83 485 91 l 496 55 q 455 26 412 6 q 368 -15 350 -15 q 332 -15 320 6 q 307 27 305 63 z m 304 230 q 249 221 223 212 q 198 203 184 189 q 170 175 163 160 q 156 146 156 126 q 156 97 170 84 q 185 71 201 71 q 222 71 246 82 q 270 93 304 122 z"},"L":{"x_min":0,"x_max":509,"ha":509,"o":"m 21 0 l 21 36 q 53 42 70 50 q 88 59 88 65 l 88 549 q 88 556 71 565 q 54 573 21 580 l 21 615 l 277 615 l 277 580 q 245 573 228 565 q 210 557 210 549 l 210 95 q 210 76 230 67 q 250 59 301 59 l 356 59 q 386 59 404 68 q 422 78 434 99 q 447 120 462 161 l 498 148 q 494 107 488 61 q 481 15 478 0 z"},"3":{"x_min":0,"x_max":505,"ha":505,"o":"m 122 132 q 127 138 131 140 q 134 143 138 143 q 145 143 154 136 q 167 130 190 124 q 213 117 233 117 q 249 117 263 125 q 278 133 288 147 q 297 162 297 180 q 297 198 281 215 q 266 231 244 237 q 204 249 174 249 q 165 249 160 251 q 156 254 156 262 q 156 275 167 298 q 177 321 194 344 q 211 366 230 377 q 254 392 265 406 q 276 420 276 443 q 276 479 229 494 q 210 500 177 502 q 143 505 120 505 q 112 505 108 507 q 104 509 104 515 q 104 523 129 563 q 155 603 168 616 q 174 621 177 623 q 181 625 187 625 q 208 625 255 618 q 302 610 327 600 q 359 587 379 559 q 399 530 399 494 q 399 457 381 425 q 364 393 342 369 q 336 364 336 360 q 336 357 338 356 q 339 354 341 354 q 342 353 343 353 q 346 350 370 336 q 394 323 412 292 q 431 260 431 217 q 431 166 406 121 q 382 77 347 43 q 317 15 276 0 q 234 -16 201 -16 q 172 -16 138 -6 q 104 4 72 22 q 67 24 63 28 q 59 32 59 37 q 59 45 64 54 q 74 74 92 97 q 109 119 122 132 z"},";":{"x_min":0,"x_max":365,"ha":365,"o":"m 99 330 q 99 339 104 346 q 113 356 139 384 q 165 412 173 419 q 183 427 189 427 q 193 427 197 425 q 200 424 204 420 q 246 376 284 354 q 293 349 293 339 q 293 335 292 330 q 290 326 288 323 q 259 282 221 244 q 214 237 208 237 q 200 237 194 241 q 167 254 144 274 q 121 293 104 316 q 99 325 99 330 z m 103 -58 q 128 9 133 37 q 140 79 140 108 q 140 114 142 118 q 144 122 147 128 q 157 142 182 164 q 207 187 225 198 q 236 205 246 205 q 250 204 255 195 q 260 187 264 171 q 267 156 267 139 q 267 103 256 68 q 245 33 217 -15 q 199 -44 174 -73 q 148 -103 124 -120 q 108 -131 93 -131 q 89 -131 85 -127 q 82 -124 82 -119 q 82 -113 86 -103 q 90 -93 91 -90 z"},"J":{"x_min":0,"x_max":334,"ha":334,"o":"m 237 89 q 237 23 220 -23 q 203 -69 179 -97 q 156 -124 122 -152 q 95 -174 57 -189 q 20 -204 -12 -204 q -40 -204 -67 -196 q -94 -188 -112 -176 q -129 -165 -129 -158 q -129 -151 -113 -134 q -97 -116 -76 -100 q -56 -83 -47 -80 q 2 -122 45 -122 q 65 -122 80 -109 q 95 -96 105 -57 q 115 -18 115 54 l 115 549 q 115 566 23 580 l 23 615 l 304 615 l 304 580 q 272 573 254 565 q 237 557 237 549 z"},"V":{"x_min":0,"x_max":665,"ha":665,"o":"m 389 40 q 382 21 354 7 q 325 -7 294 -15 l 72 547 q 66 561 52 568 q 37 576 6 580 l 6 615 l 255 615 l 255 580 q 223 577 209 572 q 194 566 194 557 q 194 554 196 548 l 355 140 l 500 547 q 501 552 501 555 q 501 565 487 570 q 473 576 438 580 l 438 615 l 648 615 l 648 580 q 610 572 594 566 q 577 560 573 547 z"},"\"":{"x_min":0,"x_max":493,"ha":493,"o":"m 103 466 q 117 484 142 506 q 166 528 184 541 q 192 548 202 548 q 214 548 214 517 l 214 464 q 214 447 212 430 q 209 414 204 392 l 201 378 q 189 319 165 225 q 159 202 142 202 q 136 202 130 207 q 124 212 124 221 l 98 440 q 98 450 98 456 q 99 461 103 466 z m 303 466 q 317 484 342 506 q 366 528 384 541 q 388 544 393 546 q 398 548 402 548 q 415 548 415 517 l 415 464 q 415 447 412 430 q 410 414 405 392 l 402 378 q 395 346 388 315 q 380 285 365 225 q 361 211 355 207 q 350 202 342 202 q 336 202 330 207 q 324 212 324 221 l 298 440 q 298 450 299 456 q 300 461 303 466 z"},"7":{"x_min":0,"x_max":505,"ha":505,"o":"m 226 318 q 242 341 260 379 q 277 417 277 431 q 277 437 272 440 q 267 444 259 444 l 72 444 q 56 444 48 448 q 40 452 40 463 q 41 467 44 477 q 47 486 50 495 q 63 529 81 563 q 99 596 115 617 q 119 622 125 625 q 132 628 138 628 q 145 628 149 625 q 154 622 156 616 q 162 600 167 596 q 172 591 186 591 l 420 591 q 440 591 449 582 q 458 573 458 559 q 458 541 443 502 q 429 464 407 427 q 397 408 385 391 q 373 374 355 351 l 350 343 q 329 315 310 280 q 290 246 278 214 q 271 198 265 172 q 259 146 259 131 q 259 121 255 112 q 251 104 244 94 q 225 65 191 33 q 158 0 132 -16 q 129 -18 125 -20 q 121 -21 118 -21 q 110 -21 105 -15 q 101 -10 101 1 q 101 84 125 146 q 141 189 166 230 q 190 272 226 318 z"},"S":{"x_min":0,"x_max":513,"ha":513,"o":"m 57 33 q 54 35 52 50 q 50 65 50 87 q 50 114 53 142 q 55 169 61 188 l 95 185 q 118 126 159 91 q 201 55 250 55 q 279 55 305 66 q 332 78 347 99 q 363 121 363 151 q 363 186 344 212 q 324 237 296 254 q 267 271 219 294 q 165 319 133 339 q 100 359 77 391 q 55 423 55 469 q 55 502 79 540 q 104 578 155 604 q 206 630 279 630 q 332 630 378 617 q 424 604 442 585 q 444 583 444 580 q 444 571 436 552 q 428 533 418 515 q 407 497 400 491 l 368 494 q 349 536 317 555 q 286 574 254 574 q 223 574 202 563 q 182 553 172 536 q 162 519 162 499 q 162 473 179 453 q 196 433 222 418 q 248 402 292 381 q 351 352 386 329 q 421 306 447 270 q 473 234 473 184 q 473 138 445 92 q 417 46 363 16 q 308 -15 229 -15 q 192 -15 141 -1 q 89 12 57 33 z"},"}":{"x_min":0,"x_max":357,"ha":357,"o":"m 180 348 l 180 480 q 180 505 170 522 q 160 539 133 547 l 44 571 q 38 573 35 576 q 32 578 32 583 q 32 590 50 600 q 58 605 72 614 q 85 622 95 626 q 103 630 113 630 q 121 630 168 617 l 187 612 q 223 601 243 583 q 263 565 271 537 q 280 509 280 467 l 280 330 q 280 312 282 301 q 284 290 292 280 q 300 270 318 262 q 328 257 328 247 q 328 235 318 230 q 300 222 292 212 q 284 203 282 192 q 280 181 280 163 l 280 27 q 280 -36 253 -73 q 227 -111 170 -122 q 144 -126 97 -131 q 51 -136 41 -136 q 32 -136 32 -130 q 32 -125 36 -119 q 40 -113 40 -112 q 51 -99 69 -77 q 80 -65 87 -63 q 93 -61 142 -51 q 160 -47 168 -36 q 177 -25 179 -11 q 181 2 181 21 l 181 146 q 181 169 187 185 q 192 201 203 212 q 213 223 233 238 q 234 238 236 241 q 238 244 238 247 q 238 251 236 253 q 234 255 233 255 q 213 271 202 282 q 192 293 186 309 q 180 324 180 348 z"},"Z":{"x_min":0,"x_max":545,"ha":545,"o":"m 43 0 l 25 26 l 354 552 l 163 552 q 152 552 139 537 q 125 522 113 496 q 101 470 94 438 l 52 447 l 70 623 q 94 618 112 616 q 129 615 163 615 l 489 615 l 505 591 l 179 63 l 401 63 q 415 63 425 76 q 436 89 445 113 q 454 137 468 183 l 510 172 q 506 104 504 0 z"},"x":{"x_min":0,"x_max":521,"ha":521,"o":"m 274 36 q 296 38 306 41 q 317 44 317 54 q 317 62 307 77 l 235 176 l 158 77 q 148 64 148 56 q 148 46 161 42 q 173 38 195 36 l 195 0 l 6 0 l 6 36 q 40 41 56 52 q 73 62 87 80 l 200 225 l 91 376 q 81 390 72 398 q 63 406 49 411 q 35 417 12 418 l 12 454 l 253 454 l 253 418 q 232 417 223 413 q 214 410 214 402 q 214 395 226 377 l 281 301 l 340 377 q 353 395 353 402 q 353 410 344 413 q 335 417 314 418 l 314 454 l 500 454 l 500 418 q 464 416 446 406 q 427 396 412 376 l 316 252 l 440 80 q 454 62 470 51 q 486 40 515 36 l 515 0 l 274 0 z"},")":{"x_min":0,"x_max":365,"ha":365,"o":"m 173 190 q 173 246 159 295 q 145 343 123 383 q 101 423 70 466 q 59 479 59 487 q 59 492 64 509 q 71 530 78 545 q 84 560 96 583 l 103 596 q 108 607 112 611 q 115 614 120 614 q 128 614 136 607 q 145 600 154 587 q 201 528 237 460 q 260 416 273 357 q 286 298 286 252 q 286 198 266 135 q 247 73 220 19 q 194 -35 169 -73 q 161 -85 150 -96 q 140 -105 117 -119 q 95 -133 83 -139 q 81 -139 78 -140 q 76 -141 74 -141 q 63 -141 63 -128 q 63 -122 66 -116 q 69 -109 76 -99 q 79 -95 83 -86 q 120 -21 146 52 q 173 125 173 190 z"},"&":{"x_min":0,"x_max":668,"ha":668,"o":"m 472 513 q 472 482 459 458 q 445 435 427 418 q 409 402 381 383 l 362 369 q 401 322 418 300 q 459 249 491 213 q 498 229 498 247 q 498 269 489 288 q 479 308 466 328 q 464 331 463 333 q 462 336 462 338 q 462 340 465 344 q 467 348 469 351 l 476 358 q 483 365 511 396 q 539 426 546 433 q 553 439 557 439 q 563 439 568 432 q 584 407 593 379 q 601 351 601 321 q 601 278 585 235 q 568 192 539 157 q 562 128 574 115 q 586 102 606 86 q 607 85 610 82 q 614 80 614 77 q 614 73 610 68 q 606 63 600 58 q 564 27 518 -2 q 503 -11 496 -11 q 493 -11 489 -8 q 485 -5 483 -3 q 475 5 459 24 q 443 42 439 48 q 413 30 392 19 q 372 8 344 0 q 315 -7 279 -7 q 231 -7 189 12 q 146 31 118 73 q 91 114 91 178 q 91 245 126 289 q 161 333 193 354 q 170 384 162 405 q 153 427 153 452 q 153 499 181 541 q 210 583 255 608 q 299 634 345 634 q 375 634 404 620 q 434 605 453 578 q 472 550 472 513 z m 311 434 q 326 443 334 464 q 343 484 343 506 q 343 527 333 541 q 324 556 306 556 q 298 556 290 550 q 281 544 275 535 q 269 526 269 516 q 269 502 282 479 q 295 455 311 434 z m 334 90 q 351 90 368 95 q 386 100 393 106 l 384 117 q 299 219 249 284 q 235 269 228 249 q 220 229 220 208 q 220 178 234 151 q 248 124 273 107 q 299 90 334 90 z"},"v":{"x_min":0,"x_max":508,"ha":508,"o":"m 313 40 q 305 20 281 6 q 257 -8 229 -15 l 57 385 q 51 399 40 406 q 30 413 6 418 l 6 454 l 228 454 l 228 418 q 198 415 187 410 q 176 406 176 397 q 176 394 180 385 l 285 140 l 383 385 q 387 394 387 398 q 387 406 377 410 q 368 415 344 418 l 344 454 l 501 454 l 501 418 q 482 414 473 410 q 464 406 460 401 q 456 396 451 385 z"},"O":{"x_min":0,"x_max":622,"ha":622,"o":"m 27 299 q 27 387 65 463 q 103 539 170 584 q 237 630 320 630 q 403 630 463 586 q 523 542 554 470 q 585 398 585 316 q 585 229 545 153 q 505 77 437 31 q 370 -15 292 -15 q 212 -15 152 29 q 92 72 59 144 q 27 216 27 299 z m 150 313 q 150 241 172 181 q 194 121 232 86 q 270 51 313 51 q 357 51 391 80 q 424 108 443 166 q 462 223 462 307 q 462 375 441 435 q 419 494 381 530 q 343 566 295 566 q 249 566 216 536 q 184 506 167 449 q 150 393 150 313 z"},"(":{"x_min":0,"x_max":365,"ha":365,"o":"m 172 283 q 172 227 186 179 q 200 130 222 91 q 245 51 275 8 q 286 -6 286 -14 q 286 -19 280 -36 q 273 -58 266 -73 q 259 -89 248 -111 l 242 -123 q 237 -133 233 -137 q 229 -141 225 -141 q 217 -141 209 -134 q 202 -127 190 -112 q 139 -47 108 13 q 85 58 72 117 q 59 176 59 221 q 59 276 79 338 q 98 401 125 455 q 151 509 175 546 q 177 548 182 555 q 188 562 195 569 q 205 579 228 593 q 250 606 262 612 q 268 614 271 614 q 281 614 281 602 q 281 595 278 588 q 275 581 269 572 l 261 559 q 225 494 198 421 q 172 349 172 283 z"},"C":{"x_min":0,"x_max":558,"ha":558,"o":"m 27 286 q 27 387 67 466 q 108 544 178 587 q 249 630 335 630 q 387 630 437 616 q 487 602 514 581 q 517 578 508 556 q 498 534 484 509 q 470 484 462 477 l 431 484 q 384 565 304 565 q 266 565 231 540 q 197 516 174 457 q 150 399 150 304 q 150 226 177 172 q 204 118 245 92 q 287 66 333 66 q 365 66 408 82 q 451 98 498 136 q 502 133 515 114 q 522 104 523 103 q 408 -15 286 -15 q 219 -15 160 22 q 100 59 63 127 q 27 195 27 286 z"},"W":{"x_min":0,"x_max":850,"ha":850,"o":"m 660 29 q 653 0 588 -15 l 422 428 l 282 29 q 276 11 255 1 q 234 -8 204 -15 l 77 545 q 75 558 59 565 q 44 573 10 580 l 10 615 l 249 615 l 249 580 q 211 576 198 569 q 185 562 185 552 q 185 550 186 545 l 270 188 l 412 615 l 461 615 l 625 188 l 703 549 q 705 560 686 566 q 667 573 628 580 l 628 615 l 846 615 l 846 580 q 805 571 789 564 q 773 558 771 549 z"},"A":{"x_min":0,"x_max":628,"ha":628,"o":"m 145 69 q 144 64 144 62 q 144 52 160 46 q 176 40 213 36 l 213 0 l 0 0 l 0 36 q 37 42 53 49 q 69 55 74 69 l 244 589 q 265 607 294 621 q 323 635 353 643 l 558 69 q 562 54 575 47 q 588 39 618 36 l 618 0 l 375 0 l 375 36 q 408 38 422 43 q 437 49 437 60 q 437 64 435 69 l 385 210 l 191 210 z m 365 269 l 284 496 l 211 269 z"},"f":{"x_min":0,"x_max":340,"ha":340,"o":"m 271 681 q 242 681 225 641 q 208 600 208 496 l 208 454 l 329 454 l 347 437 q 338 421 323 402 q 309 384 299 376 q 285 383 264 388 q 243 393 208 393 l 208 64 q 208 59 229 52 q 250 46 306 36 l 306 0 l 26 0 l 26 36 q 57 41 73 49 q 90 58 90 64 l 90 393 l 32 393 l 19 411 l 57 454 l 90 454 l 90 469 q 90 546 111 599 q 132 651 173 690 q 207 723 246 740 q 285 757 317 757 q 344 757 372 748 q 399 739 417 728 q 435 716 435 710 q 435 700 420 682 q 404 665 385 648 q 365 631 354 626 q 333 654 311 667 q 289 681 271 681 z"},"Q":{"x_min":0,"x_max":622,"ha":622,"o":"m 417 -75 q 387 -53 364 -39 q 342 -24 320 -13 q 302 -15 292 -15 q 214 -15 154 28 q 93 71 60 143 q 27 215 27 299 q 27 387 65 463 q 103 539 170 584 q 237 630 320 630 q 403 630 463 586 q 523 542 554 470 q 585 398 585 316 q 585 251 562 191 q 540 131 499 85 q 458 39 406 13 q 424 6 442 -2 q 459 -10 484 -23 q 525 -43 550 -53 q 576 -63 600 -63 q 612 -63 626 -57 q 640 -50 668 -29 l 692 -61 q 677 -88 659 -111 q 640 -134 624 -147 q 607 -160 597 -160 q 569 -160 540 -148 q 510 -137 484 -120 q 458 -104 417 -75 z m 150 313 q 150 241 172 181 q 194 121 232 86 q 270 51 313 51 q 357 51 391 80 q 424 108 443 166 q 462 223 462 307 q 462 375 441 435 q 419 494 381 530 q 343 566 295 566 q 249 566 216 536 q 184 506 167 449 q 150 393 150 313 z"},"w":{"x_min":0,"x_max":717,"ha":717,"o":"m 554 29 q 548 10 528 0 q 507 -9 483 -15 l 359 271 l 260 29 q 253 10 234 0 q 214 -9 191 -15 l 60 388 q 57 397 43 405 q 30 413 6 418 l 6 454 l 228 454 l 228 418 q 196 415 184 409 q 172 403 172 396 q 172 392 174 388 l 247 158 l 364 454 l 401 454 l 524 158 l 594 388 q 596 395 596 397 q 596 404 587 409 q 577 414 552 418 l 552 454 l 710 454 l 710 418 q 684 412 675 406 q 666 400 662 388 z"},"-":{"x_min":0,"x_max":364,"ha":364,"o":"m 93 294 q 108 319 128 319 l 302 319 q 329 319 329 298 q 329 281 311 245 q 294 210 281 191 q 274 180 269 176 q 263 172 254 172 q 192 172 161 171 l 64 171 q 55 171 48 174 q 42 178 42 187 q 42 201 48 212 q 54 224 68 251 q 83 278 93 294 z"},"E":{"x_min":0,"x_max":525,"ha":525,"o":"m 21 0 l 21 36 q 53 42 70 50 q 88 59 88 65 l 88 549 q 88 556 71 565 q 54 573 21 580 l 21 615 l 451 615 l 471 600 q 469 572 463 527 q 456 481 451 464 l 414 464 q 410 557 374 557 l 210 557 l 210 359 l 404 359 l 420 342 q 390 291 375 280 q 360 295 339 301 q 319 307 279 307 l 210 307 l 210 90 q 210 79 218 73 q 225 66 247 62 q 268 59 310 59 l 358 59 q 388 59 406 68 q 425 78 439 99 q 452 121 467 161 l 502 148 q 499 106 492 60 q 486 14 482 0 z"},"s":{"x_min":0,"x_max":419,"ha":419,"o":"m 44 21 q 41 22 39 36 q 38 50 38 70 q 38 95 40 120 q 42 146 47 164 l 87 159 q 94 125 111 99 q 128 73 153 59 q 177 45 205 45 q 241 45 258 58 q 274 71 274 100 q 274 125 259 144 q 243 163 221 176 q 199 190 157 212 q 104 239 74 268 q 43 297 43 338 q 43 377 68 407 q 92 437 132 453 q 172 469 217 469 q 260 469 301 458 q 342 448 364 431 q 366 430 366 423 q 366 407 356 372 q 346 338 336 325 l 302 329 q 290 372 267 395 q 244 417 212 417 q 183 417 167 404 q 150 391 150 370 q 150 352 162 337 q 173 323 191 312 q 210 300 248 281 l 262 273 q 300 254 324 238 q 348 221 365 197 q 382 172 382 138 q 382 75 348 41 q 314 7 271 -4 q 229 -15 188 -15 q 155 -15 115 -5 q 75 4 44 21 z"},">":{"x_min":0,"x_max":505,"ha":505,"o":"m 435 246 q 415 237 354 210 q 292 183 260 167 q 218 147 174 125 q 129 104 113 95 q 105 92 101 92 q 96 92 92 99 l 68 149 q 67 150 67 153 q 66 155 66 157 q 66 164 75 167 q 93 175 146 198 q 199 222 222 233 l 339 289 l 222 345 q 199 356 146 379 q 93 403 75 411 q 70 413 67 415 q 65 417 65 420 q 65 421 66 424 q 67 427 68 428 l 90 474 q 93 480 96 483 q 99 485 102 485 q 108 485 113 482 q 129 474 174 452 q 218 431 260 411 q 292 395 354 368 q 415 340 435 332 q 439 330 441 327 q 442 325 442 318 l 442 263 q 442 255 441 252 q 439 248 435 246 z"},"l":{"x_min":0,"x_max":300,"ha":300,"o":"m 26 36 q 65 42 80 50 q 95 57 95 65 l 95 618 q 95 648 91 660 q 86 672 74 676 q 63 680 31 684 l 31 718 q 84 726 120 734 q 155 742 191 757 l 212 737 l 212 65 q 212 57 229 50 q 245 42 282 36 l 282 0 l 26 0 z"},"8":{"x_min":0,"x_max":505,"ha":505,"o":"m 124 296 q 129 301 129 303 q 129 304 126 306 q 124 307 122 308 q 93 324 75 355 q 58 385 58 429 q 58 458 73 497 q 88 535 113 564 q 136 593 166 609 q 195 625 225 625 q 255 625 285 615 q 315 605 337 589 q 364 570 379 541 q 394 511 394 483 q 394 446 379 415 q 365 383 336 353 q 334 350 334 348 q 334 344 339 342 q 380 320 409 293 q 429 274 436 251 q 443 229 443 207 q 443 169 420 121 q 397 73 359 35 q 331 8 299 -4 q 266 -16 233 -16 q 209 -16 181 -9 q 154 -2 128 14 q 97 35 73 73 q 50 110 50 150 q 50 185 64 216 q 79 247 96 267 q 113 288 124 296 z m 176 461 q 176 446 188 431 q 193 424 210 413 q 227 402 244 393 q 261 384 263 384 q 268 384 275 395 q 281 403 284 414 q 288 425 288 434 q 288 462 267 479 q 246 496 217 496 q 196 496 186 485 q 176 474 176 461 z m 210 257 q 209 259 206 260 q 202 262 198 262 q 193 262 185 254 q 176 247 170 232 q 164 218 164 200 q 164 177 174 159 q 185 141 205 131 q 225 120 250 120 q 275 120 292 134 q 310 148 310 173 q 310 183 306 191 q 302 199 292 207 q 281 216 252 233 q 223 251 210 257 z"},"\\":{"x_min":0,"x_max":365,"ha":365,"o":"m 49 506 q 48 509 42 519 q 37 529 37 535 q 37 540 37 543 q 38 546 40 551 q 50 578 58 593 q 61 599 63 602 q 65 604 68 604 q 74 604 77 598 q 78 594 138 444 q 176 351 204 280 q 263 128 323 2 q 330 -9 330 -19 q 330 -25 326 -48 q 322 -70 319 -84 q 318 -89 315 -93 q 312 -96 307 -96 q 304 -96 301 -93 q 298 -89 294 -81 l 162 248 q 118 355 95 408 q 72 460 49 506 z"},"e":{"x_min":0,"x_max":484,"ha":484,"o":"m 153 229 q 154 181 169 145 q 184 108 211 88 q 238 67 275 67 q 298 67 317 72 q 336 76 362 88 q 387 101 424 126 q 429 124 437 113 q 445 103 449 95 q 404 50 371 26 q 337 3 306 -6 q 275 -15 234 -15 q 179 -15 133 14 q 86 43 59 96 q 32 149 32 216 q 32 282 57 334 q 83 387 132 423 q 159 443 195 456 q 231 469 267 469 q 329 469 370 441 q 412 414 432 369 q 452 323 452 269 q 444 259 423 248 q 402 236 384 229 z m 317 283 q 328 283 332 287 q 335 291 335 301 q 335 324 327 349 q 319 374 300 392 q 280 410 250 410 q 206 410 183 377 q 160 345 154 283 z"},"b":{"x_min":0,"x_max":537,"ha":537,"o":"m 61 47 l 61 618 q 61 649 57 661 q 53 673 43 676 q 33 680 1 684 l 1 718 q 55 727 89 735 q 124 743 157 757 l 178 737 l 178 392 q 223 431 268 450 q 312 469 344 469 q 392 469 427 442 q 462 415 481 365 q 500 315 500 248 q 500 191 462 130 q 424 68 364 27 q 304 -15 244 -15 q 217 -15 166 3 q 114 20 61 47 z m 178 331 l 178 106 q 214 87 245 77 q 275 67 292 67 q 341 67 367 105 q 393 144 393 203 q 393 266 378 306 q 364 347 340 366 q 315 385 284 385 q 265 385 238 372 q 211 359 178 331 z"},"%":{"x_min":0,"x_max":562,"ha":562,"o":"m 243 382 q 259 406 267 436 q 276 466 276 507 q 276 539 261 572 q 247 604 223 622 q 203 637 177 637 q 167 637 155 634 q 144 630 136 625 q 112 612 87 587 q 62 562 48 542 q 39 528 31 506 q 23 484 23 454 q 23 418 35 386 q 46 353 71 332 q 96 311 133 311 q 167 311 197 334 q 227 357 243 382 z m 74 9 q 74 0 84 0 q 88 0 90 1 q 100 4 115 13 q 131 21 141 29 q 156 40 168 69 q 185 108 227 186 q 270 264 294 305 q 320 348 392 474 q 464 601 470 617 q 470 619 472 623 q 474 626 474 630 q 474 636 468 636 q 462 636 456 633 q 454 632 451 630 q 449 628 445 626 q 439 622 427 614 q 414 606 405 600 q 398 596 395 591 q 392 587 389 579 q 374 544 328 457 q 283 371 231 286 q 183 203 140 129 q 97 56 77 18 q 74 13 74 9 z m 108 479 q 108 511 114 529 q 120 548 136 548 q 168 548 179 521 q 186 504 188 490 q 190 477 190 458 q 190 402 151 402 q 129 402 119 424 q 108 447 108 479 z m 500 72 q 532 121 532 196 q 532 228 518 261 q 503 294 479 312 q 459 327 434 327 q 423 327 412 323 q 400 320 393 315 q 369 301 344 276 q 318 251 304 231 q 295 218 288 196 q 280 174 280 144 q 280 108 291 75 q 303 42 327 21 q 352 0 389 0 q 423 0 453 23 q 483 47 500 72 z m 365 169 q 365 200 371 219 q 376 237 393 237 q 407 237 418 231 q 430 226 436 210 q 442 193 444 180 q 446 166 446 147 q 446 91 408 91 q 386 91 375 114 q 365 136 365 169 z"},"m":{"x_min":0,"x_max":844,"ha":844,"o":"m 590 36 q 623 44 635 51 q 647 58 647 65 l 647 294 q 647 333 642 353 q 636 372 626 378 q 615 385 596 385 q 574 385 545 369 q 516 354 485 324 l 485 65 q 485 58 498 52 q 510 45 546 36 l 546 0 l 311 0 l 311 36 q 343 44 355 51 q 368 58 368 65 l 368 294 q 368 334 363 354 q 359 373 349 379 q 339 385 320 385 q 274 385 205 324 l 205 65 q 205 58 220 50 q 236 42 266 36 l 266 0 l 23 0 l 23 36 q 58 44 73 51 q 88 58 88 65 l 88 336 q 88 365 85 376 q 82 386 69 391 q 57 396 23 399 l 23 434 q 72 439 106 448 q 141 456 177 469 l 198 448 l 203 388 q 254 433 294 451 q 334 469 373 469 q 417 469 444 448 q 470 427 476 395 l 478 388 q 529 433 570 451 q 610 469 648 469 q 699 469 732 438 q 764 408 764 344 l 764 65 q 764 59 780 52 q 795 45 833 36 l 833 0 l 590 0 z"},"#":{"x_min":0,"x_max":505,"ha":505,"o":"m 376 628 l 400 644 q 402 645 407 648 q 413 652 417 652 q 422 652 422 645 q 422 637 412 595 q 402 558 388 501 l 380 473 q 380 469 385 469 l 483 469 q 497 469 497 460 q 497 458 495 453 q 494 449 492 445 q 465 391 443 356 q 440 349 421 349 l 362 349 q 357 349 355 348 q 353 346 352 342 l 334 268 q 334 263 338 263 l 438 263 q 451 263 451 255 q 451 252 447 241 q 413 172 393 150 q 388 144 372 144 l 317 144 q 312 144 311 141 q 310 138 310 138 q 306 123 306 118 q 292 53 283 14 q 278 -10 271 -19 l 244 -46 q 233 -58 229 -58 q 225 -58 223 -55 q 220 -53 220 -49 q 220 -44 229 -14 l 239 21 q 272 136 272 140 q 272 144 267 144 l 158 144 q 151 144 150 136 l 123 14 q 118 -10 111 -19 l 83 -46 q 73 -58 70 -58 q 65 -58 62 -55 q 60 -53 60 -49 q 60 -46 63 -34 q 66 -22 69 -14 l 83 31 q 102 90 113 138 q 113 144 107 144 l 11 144 q -2 144 -2 151 q -2 153 0 159 l 15 189 q 43 249 51 256 q 59 263 70 263 l 131 263 q 135 263 136 265 q 138 267 138 269 l 146 300 q 151 318 155 344 q 155 349 151 349 l 62 349 q 48 349 48 357 q 48 360 50 364 q 64 392 81 424 q 98 456 104 462 q 113 469 123 469 l 174 469 q 181 469 183 476 l 205 604 q 207 613 209 619 q 212 625 218 628 l 242 644 q 247 647 251 649 q 255 652 258 652 q 264 652 264 645 q 264 640 258 617 l 254 603 l 224 473 q 224 471 226 470 q 228 469 229 469 l 332 469 q 337 469 340 476 l 364 604 q 366 613 368 619 q 371 625 376 628 z m 175 267 q 175 263 182 263 l 286 263 q 291 263 293 265 q 295 267 295 270 l 299 285 q 314 341 314 346 q 314 347 313 349 q 312 350 309 350 l 205 350 q 202 350 200 348 q 197 346 197 343 z"},",":{"x_min":0,"x_max":333,"ha":333,"o":"m 103 -58 q 128 9 133 37 q 140 79 140 108 q 140 114 142 118 q 144 122 147 128 q 157 142 182 164 q 207 187 225 198 q 236 205 246 205 q 250 204 255 195 q 260 187 264 171 q 267 156 267 139 q 267 103 256 68 q 245 33 217 -15 q 200 -43 174 -72 q 148 -101 124 -120 q 108 -131 93 -131 q 89 -131 85 -127 q 82 -124 82 -119 q 82 -113 86 -103 q 90 -93 91 -90 z"},"n":{"x_min":0,"x_max":581,"ha":581,"o":"m 324 36 q 358 44 373 52 q 388 59 388 65 l 388 287 q 388 323 383 343 q 378 363 367 372 q 356 380 337 380 q 312 380 281 365 q 250 350 205 312 l 205 65 q 205 58 222 50 q 239 42 270 36 l 270 0 l 23 0 l 23 36 q 58 44 73 51 q 88 58 88 65 l 88 336 q 88 366 85 376 q 83 386 70 391 q 58 396 23 399 l 23 434 q 70 438 106 447 q 142 455 177 469 l 198 448 l 203 378 q 257 424 307 447 q 357 469 397 469 q 444 469 475 438 q 505 408 505 344 l 505 65 q 505 59 519 52 q 533 45 570 36 l 570 0 l 324 0 z"},"h":{"x_min":0,"x_max":581,"ha":581,"o":"m 324 36 q 358 44 373 52 q 388 59 388 65 l 388 280 q 388 319 383 341 q 377 362 365 371 q 354 380 333 380 q 306 380 277 364 q 248 347 205 312 l 205 65 q 205 58 222 50 q 239 42 270 36 l 270 0 l 23 0 l 23 36 q 58 44 73 51 q 88 58 88 65 l 88 619 q 88 649 85 660 q 82 671 70 675 q 58 680 23 684 l 23 718 q 78 726 112 734 q 147 742 184 757 l 205 737 l 205 382 q 259 426 308 447 q 357 469 397 469 q 444 469 475 438 q 505 408 505 344 l 505 65 q 505 59 519 52 q 533 45 570 36 l 570 0 l 324 0 z"},"z":{"x_min":0,"x_max":468,"ha":468,"o":"m 42 0 l 30 22 l 288 396 l 161 396 q 139 396 120 370 q 102 345 89 293 l 55 303 l 67 462 q 86 457 102 455 q 118 454 153 454 l 426 454 l 437 433 l 178 59 l 345 59 q 356 59 365 71 q 373 83 379 104 q 385 124 396 170 l 431 162 q 431 123 429 69 q 427 16 425 0 z"},"B":{"x_min":0,"x_max":601,"ha":601,"o":"m 60 0 l 21 0 l 21 36 q 53 42 70 50 q 88 59 88 65 l 88 569 q 53 565 21 560 l 15 601 q 62 612 132 621 q 203 630 258 630 q 333 630 386 614 q 440 598 469 569 q 497 539 497 498 q 497 445 469 408 q 440 370 386 353 q 434 345 472 320 q 509 294 530 256 q 551 218 551 174 q 551 119 521 78 q 491 37 434 15 q 376 -7 299 -7 q 263 -7 176 -4 q 89 -1 60 0 z m 210 361 l 219 361 q 308 361 341 393 q 374 424 374 474 q 374 526 340 552 q 307 578 228 578 q 216 578 210 578 z m 210 62 q 210 59 212 56 q 237 45 281 45 q 350 45 387 77 q 423 109 423 165 q 423 204 409 237 q 395 270 362 291 q 330 312 276 312 q 256 312 241 311 q 227 309 210 306 z"},"K":{"x_min":0,"x_max":619,"ha":619,"o":"m 21 36 q 53 42 70 50 q 88 59 88 65 l 88 549 q 88 556 71 565 q 54 573 21 580 l 21 615 l 277 615 l 277 580 q 245 573 228 565 q 210 557 210 549 l 210 322 l 392 536 q 410 558 410 566 q 410 572 400 575 q 391 578 366 580 l 366 615 l 586 615 l 586 580 q 553 575 539 570 q 525 565 510 549 l 301 330 l 536 81 q 547 69 559 64 q 572 59 588 59 q 595 59 614 61 l 617 25 q 610 23 607 22 q 567 9 537 1 q 508 -7 489 -7 q 474 -7 463 -2 q 453 2 443 14 l 210 305 l 210 65 q 210 59 227 50 q 245 42 277 36 l 277 0 l 21 0 z"},"R":{"x_min":0,"x_max":605,"ha":605,"o":"m 21 36 q 53 42 70 50 q 88 59 88 65 l 88 565 l 33 558 q 30 557 21 556 l 15 601 q 75 614 135 622 q 194 630 258 630 q 384 630 444 590 q 504 549 504 482 q 504 417 467 371 q 430 324 368 303 l 521 90 q 534 73 546 66 q 558 60 578 60 q 583 60 600 61 l 607 25 q 572 14 529 3 q 487 -7 469 -7 q 455 -7 441 1 q 428 9 421 20 l 281 286 q 274 286 262 286 q 235 286 210 291 l 210 65 q 210 59 227 50 q 245 42 277 36 l 277 0 l 21 0 z m 210 345 q 230 341 253 341 q 318 341 349 374 q 381 406 381 467 q 381 578 237 578 q 229 578 210 577 z"},"T":{"x_min":0,"x_max":580,"ha":580,"o":"m 146 36 q 188 44 205 53 q 223 62 223 71 l 223 557 l 99 557 q 89 557 81 547 q 72 538 63 517 q 53 496 37 455 l 1 468 q 4 497 10 543 q 16 590 21 615 l 543 615 l 562 600 q 562 576 556 535 q 550 493 543 459 l 507 459 q 505 468 504 475 q 502 482 501 489 q 496 515 493 528 q 489 542 483 549 q 476 557 465 557 l 345 557 l 345 71 q 345 63 363 53 q 381 44 421 36 l 421 0 l 146 0 z"},"P":{"x_min":0,"x_max":567,"ha":567,"o":"m 21 36 q 53 42 70 50 q 88 59 88 65 l 88 565 q 53 561 21 556 l 15 601 q 68 613 141 622 q 214 630 278 630 q 354 630 411 610 q 468 590 500 551 q 531 512 531 457 q 531 394 499 347 q 467 301 419 278 q 371 254 325 254 q 302 254 280 258 q 258 261 242 269 l 227 320 q 246 311 261 308 q 276 305 294 305 q 324 305 350 320 q 376 334 392 364 q 408 393 408 437 q 408 482 388 514 q 369 546 333 562 q 297 578 250 578 q 238 578 210 577 l 210 65 q 210 49 292 36 l 292 0 l 21 0 z"},"|":{"x_min":0,"x_max":293,"ha":293,"o":"m 113 629 q 113 644 126 644 l 168 644 q 175 644 178 640 q 182 636 182 630 q 184 549 185 425 q 187 301 187 243 q 187 182 186 78 q 184 -26 182 -135 q 182 -142 178 -146 q 175 -149 168 -149 l 126 -149 q 113 -149 113 -135 l 113 -124 q 107 198 107 243 q 107 305 109 428 q 111 552 113 629 z"},"t":{"x_min":0,"x_max":370,"ha":370,"o":"m 76 119 l 76 393 l 17 393 l 2 411 l 41 454 l 76 454 l 76 556 l 174 629 l 193 613 l 193 454 l 342 454 l 359 437 q 351 420 335 402 q 320 383 310 376 q 297 383 273 388 q 250 393 226 393 l 193 393 l 193 165 q 193 75 234 75 q 253 75 276 83 q 299 90 338 111 l 359 76 q 296 30 251 8 q 205 -15 179 -15 q 150 -15 126 0 q 103 15 89 45 q 76 75 76 119 z"},"M":{"x_min":0,"x_max":847,"ha":847,"o":"m 740 65 q 740 59 759 51 q 777 42 811 36 l 811 0 l 556 0 l 556 36 q 588 42 608 50 q 627 59 627 65 l 624 462 l 417 0 l 371 0 l 167 461 l 164 65 q 164 59 181 50 q 198 42 231 36 l 231 0 l 26 0 l 26 36 q 58 42 75 50 q 93 59 93 65 l 98 562 q 82 571 64 575 q 46 580 31 580 l 31 615 l 200 615 q 207 615 211 612 q 216 609 221 601 q 227 592 234 574 l 414 167 l 597 574 q 605 593 611 602 q 616 610 621 613 q 625 615 632 615 l 797 615 l 797 580 q 771 580 735 566 z"},"g":{"x_min":0,"x_max":517,"ha":517,"o":"m 231 144 q 215 129 208 118 q 202 108 202 103 q 202 96 209 91 q 216 86 240 80 q 264 75 312 68 q 388 59 430 43 q 473 28 490 5 q 507 -18 507 -51 q 507 -96 468 -140 q 429 -185 369 -213 q 308 -241 247 -241 q 191 -241 136 -227 q 81 -212 44 -183 q 7 -153 7 -108 q 7 -82 33 -54 q 60 -26 130 12 q 103 23 88 35 q 74 47 74 60 q 74 73 96 98 q 118 123 163 153 q 107 168 74 206 q 42 243 42 294 q 42 341 71 381 q 101 421 150 445 q 200 469 255 469 q 320 469 371 435 q 431 442 502 469 l 516 451 q 513 439 505 423 q 497 406 488 395 q 451 388 417 387 q 438 352 438 313 q 438 265 411 226 q 383 188 336 166 q 290 144 236 144 z m 154 322 q 154 270 179 236 q 205 203 255 203 q 285 203 306 226 q 326 250 326 293 q 326 327 314 354 q 303 381 280 397 q 257 413 225 413 q 208 413 192 402 q 175 392 165 371 q 154 351 154 322 z m 125 -89 q 125 -111 145 -130 q 166 -148 201 -160 q 237 -171 281 -171 q 317 -171 343 -159 q 368 -147 381 -127 q 393 -107 393 -84 q 393 -62 368 -46 q 342 -29 271 -21 q 232 -16 189 -6 q 161 -25 147 -41 q 133 -56 129 -67 q 125 -78 125 -89 z"},"j":{"x_min":0,"x_max":288,"ha":288,"o":"m 81 596 q 81 617 92 634 q 103 651 122 660 q 141 669 163 669 q 192 669 211 656 q 230 642 230 616 q 230 583 207 562 q 184 542 148 542 q 120 542 100 555 q 81 569 81 596 z m -26 -241 q -50 -241 -77 -233 q -104 -225 -122 -214 q -141 -203 -141 -196 q -141 -187 -125 -170 q -108 -153 -88 -137 q -67 -121 -57 -116 q -42 -134 -16 -145 q 9 -156 29 -156 q 59 -156 76 -118 q 93 -81 93 21 l 93 316 l 93 333 q 93 362 89 373 q 86 385 73 390 q 60 396 28 399 l 28 434 q 77 440 105 448 q 134 455 177 469 l 210 469 l 210 52 q 210 -18 194 -63 q 179 -109 156 -134 q 134 -160 99 -188 q 72 -209 36 -225 q 0 -241 -26 -241 z"},"i":{"x_min":0,"x_max":300,"ha":300,"o":"m 82 596 q 82 617 93 634 q 104 651 122 660 q 141 669 164 669 q 192 669 212 656 q 231 642 231 616 q 231 583 208 562 q 185 542 149 542 q 120 542 101 555 q 82 569 82 596 z m 31 36 q 62 42 79 50 q 95 58 95 65 l 95 316 l 95 337 q 95 363 92 375 q 88 386 75 391 q 62 396 31 399 l 31 434 q 119 446 181 469 l 212 469 l 212 65 q 212 59 229 50 q 245 42 277 36 l 277 0 l 31 0 z"},"y":{"x_min":0,"x_max":508,"ha":508,"o":"m 285 -37 q 244 -141 189 -191 q 134 -241 69 -241 q 46 -241 23 -235 q 0 -229 -15 -222 q -30 -214 -30 -208 q -30 -202 -17 -183 q -3 -164 14 -145 q 32 -125 42 -120 q 57 -130 74 -135 q 91 -140 106 -140 q 122 -140 133 -136 q 153 -129 174 -106 q 194 -84 210 -45 l 224 -11 l 61 385 q 55 398 43 406 q 31 413 6 418 l 6 454 l 228 454 l 228 418 q 200 415 190 411 q 180 407 180 399 q 180 394 184 385 l 284 140 l 380 385 q 383 395 383 399 q 383 406 375 410 q 366 415 342 418 l 342 454 l 501 454 l 501 418 q 481 414 471 410 q 461 406 456 400 q 451 395 448 385 z"},".":{"x_min":0,"x_max":325,"ha":325,"o":"m 104 79 q 104 87 110 94 q 118 104 143 132 q 168 159 177 167 q 187 176 194 176 q 198 176 201 174 q 204 172 208 168 q 242 131 289 104 q 298 99 298 88 q 298 85 296 80 q 294 75 292 72 q 259 26 226 -7 q 220 -14 212 -14 q 205 -14 198 -11 q 172 3 149 23 q 126 43 109 66 q 104 73 104 79 z"},"p":{"x_min":0,"x_max":559,"ha":559,"o":"m 205 41 l 205 -168 q 205 -186 288 -199 l 288 -234 l 23 -234 l 23 -199 q 57 -191 72 -184 q 88 -177 88 -168 l 88 336 q 88 364 84 375 q 81 387 68 393 q 55 398 23 399 l 23 434 q 78 441 109 448 q 140 455 177 469 l 198 448 l 202 388 q 294 469 363 469 q 409 469 446 444 q 483 419 505 368 q 527 318 527 244 q 527 183 497 122 q 467 62 422 24 q 377 -15 337 -15 q 309 -15 278 -2 q 248 11 205 41 z m 205 331 l 205 111 q 253 83 280 75 q 306 67 333 67 q 357 67 377 84 q 396 100 407 131 q 417 163 417 206 q 417 266 401 306 q 385 347 360 366 q 334 386 304 386 q 292 386 280 382 q 268 378 251 366 q 233 354 205 331 z"},"X":{"x_min":0,"x_max":630,"ha":630,"o":"m 358 36 q 390 39 403 44 q 417 49 417 59 q 417 65 409 77 l 294 244 l 183 77 q 174 63 174 55 q 174 46 187 42 q 200 38 231 36 l 231 0 l 12 0 l 12 36 q 44 38 66 48 q 87 58 101 77 l 251 307 l 93 539 q 83 553 73 561 q 64 568 52 572 q 40 576 17 580 l 17 615 l 281 615 l 281 580 q 249 577 235 572 q 221 567 221 557 q 221 550 229 539 l 330 391 l 423 539 q 431 552 431 560 q 431 569 418 573 q 405 577 374 580 l 374 615 l 595 615 l 595 580 q 557 575 537 567 q 518 558 505 539 l 372 330 l 545 77 q 559 56 574 48 q 590 40 619 36 l 619 0 l 358 0 z"},"*":{"x_min":0,"x_max":365,"ha":365,"o":"m 183 528 q 180 528 177 526 q 175 525 165 518 q 154 511 149 508 q 125 492 120 489 q 119 487 115 487 q 112 487 109 490 q 106 493 106 497 q 106 501 110 512 q 114 522 118 533 q 126 554 126 558 q 126 568 124 570 q 109 582 76 604 q 72 606 72 613 q 72 620 79 620 l 137 620 q 150 620 153 630 l 157 643 q 161 652 167 671 q 173 689 174 691 q 175 694 177 696 q 180 698 183 698 q 185 698 188 697 q 190 695 190 691 l 195 678 q 209 641 213 630 q 217 620 229 620 l 285 620 q 293 620 293 613 q 293 611 291 607 q 288 604 286 603 q 279 598 267 589 q 254 580 243 570 q 239 568 239 558 q 239 553 248 530 q 258 504 258 498 q 258 493 255 490 q 253 487 250 487 q 249 488 248 489 q 247 489 246 489 q 244 490 211 511 q 193 524 189 526 q 187 528 183 528 z"},"Y":{"x_min":0,"x_max":613,"ha":613,"o":"m 168 36 q 209 44 227 53 q 245 62 245 71 l 245 258 q 211 333 163 416 q 115 499 79 547 q 72 556 64 561 q 57 565 42 568 q 28 571 2 571 l 0 606 q 97 620 129 620 q 143 620 156 614 q 170 608 178 598 q 213 551 255 478 q 296 405 332 332 l 446 547 q 449 553 449 557 q 449 565 436 571 q 422 576 392 580 l 392 615 l 596 615 l 596 580 q 562 573 546 566 q 531 560 524 547 l 367 255 l 367 71 q 367 63 385 53 q 403 44 444 36 l 444 0 l 168 0 z"},"c":{"x_min":0,"x_max":456,"ha":456,"o":"m 32 217 q 32 287 65 344 q 99 402 159 435 q 220 469 295 469 q 331 469 374 458 q 417 446 432 430 q 434 422 427 395 q 419 368 409 340 q 399 312 394 303 l 361 308 q 344 358 320 383 q 296 408 259 408 q 229 408 204 389 q 179 371 164 331 q 149 291 149 230 q 149 181 166 144 q 183 106 212 87 q 241 67 277 67 q 297 67 314 71 q 331 75 354 87 q 376 99 410 124 l 436 93 q 396 47 362 23 q 328 0 299 -7 q 270 -15 234 -15 q 181 -15 134 13 q 88 42 60 94 q 32 147 32 217 z"},"!":{"x_min":0,"x_max":365,"ha":365,"o":"m 131 535 q 131 542 135 551 q 139 559 145 565 q 152 575 173 595 q 193 615 209 625 q 218 631 224 633 q 229 635 237 635 q 250 635 253 619 q 255 602 258 545 q 260 488 260 444 q 260 429 258 385 q 256 341 254 317 q 254 316 254 311 q 253 305 252 301 q 250 296 248 293 q 239 277 224 258 q 208 238 188 223 q 182 219 177 219 q 171 219 168 230 q 161 262 151 312 q 142 361 138 395 q 131 459 131 535 z m 104 78 q 104 85 111 94 q 119 104 145 132 q 170 159 178 167 q 188 176 195 176 q 199 176 202 174 q 205 172 208 168 q 226 149 248 132 q 269 115 290 104 q 298 97 298 87 q 298 84 296 79 q 294 74 292 71 q 262 28 226 -7 q 220 -14 213 -14 q 206 -14 199 -11 q 173 3 150 23 q 126 42 110 65 q 104 72 104 78 z"},"/":{"x_min":0,"x_max":365,"ha":365,"o":"m 248 496 q 262 537 263 539 q 266 547 269 552 q 272 558 278 562 l 327 596 q 337 604 345 604 q 347 604 349 603 q 351 601 351 599 q 351 595 349 590 q 348 585 346 581 q 334 550 259 367 q 210 250 209 248 q 206 239 174 157 q 167 140 150 95 q 132 49 116 12 l 106 -12 q 95 -44 89 -51 q 78 -61 59 -72 q 39 -84 36 -86 q 29 -89 26 -89 q 21 -89 19 -87 q 17 -84 17 -81 q 17 -75 20 -67 q 30 -44 62 26 q 116 146 151 231 q 179 299 201 361 q 223 422 248 496 z"},"[":{"x_min":0,"x_max":365,"ha":365,"o":"m 64 46 q 66 208 66 240 q 66 271 64 437 q 63 514 63 534 q 63 551 70 568 q 76 584 89 595 q 102 606 120 606 l 310 606 q 326 606 326 597 q 326 595 324 591 q 323 587 320 583 q 309 569 279 546 q 271 541 264 539 q 257 536 246 536 l 178 536 q 171 536 166 531 q 161 525 161 515 l 162 401 l 163 240 l 162 83 l 161 -29 q 161 -40 166 -46 q 171 -52 178 -52 l 311 -52 q 319 -52 323 -54 q 327 -56 327 -61 q 327 -62 325 -67 q 324 -71 321 -74 q 307 -92 280 -112 q 273 -117 266 -119 q 259 -122 247 -122 l 120 -122 q 102 -122 89 -111 q 76 -100 70 -83 q 63 -66 63 -49 q 63 -29 64 46 z"},"6":{"x_min":0,"x_max":504,"ha":504,"o":"m 119 400 q 140 438 158 466 q 176 494 198 527 l 212 547 q 220 558 226 563 q 232 568 242 575 q 271 593 308 610 q 344 627 359 627 q 369 627 375 622 q 381 616 381 609 q 381 604 379 599 q 377 595 374 590 q 371 586 369 583 q 354 560 323 519 q 291 474 268 440 q 245 407 229 378 q 227 375 227 375 q 227 373 228 372 q 229 372 230 372 q 233 372 236 374 q 242 378 262 383 q 281 388 300 388 q 340 388 373 365 q 406 341 425 305 q 443 269 443 231 q 443 182 426 141 q 409 99 374 61 q 347 29 309 7 q 271 -16 227 -16 q 190 -16 152 0 q 115 15 92 37 q 67 60 49 92 q 31 124 31 171 q 31 217 54 272 q 78 328 119 400 z m 249 113 q 288 113 308 133 q 328 153 328 188 q 328 206 319 227 q 309 248 289 262 q 269 277 239 277 q 201 277 179 254 q 158 231 158 195 q 158 179 166 164 q 174 149 188 139 q 203 127 220 120 q 238 113 249 113 z"},"r":{"x_min":0,"x_max":444,"ha":444,"o":"m 360 283 q 356 325 343 352 q 329 378 306 378 q 250 378 205 279 l 205 65 q 205 58 227 50 q 248 42 292 36 l 292 0 l 23 0 l 23 36 q 56 43 72 50 q 88 58 88 65 l 88 324 q 88 354 85 367 q 82 381 77 386 q 70 393 60 396 q 50 398 23 399 l 23 434 q 77 442 107 448 q 137 455 177 469 l 198 448 l 204 377 q 232 417 271 443 q 310 469 350 469 q 369 469 389 463 q 409 458 427 447 q 430 445 430 435 q 430 410 418 358 q 406 306 396 283 z"},"2":{"x_min":0,"x_max":505,"ha":505,"o":"m 199 254 q 215 274 215 275 q 272 348 272 388 q 272 427 248 451 q 223 476 193 484 q 174 489 146 493 q 118 496 104 496 q 92 496 88 500 q 84 504 84 508 q 84 511 96 533 q 108 556 123 579 q 137 603 146 612 q 152 619 158 622 q 165 625 173 625 q 205 625 247 620 q 290 614 310 606 q 353 587 382 550 q 412 512 412 455 q 412 416 384 368 q 356 321 310 266 q 301 257 288 234 q 274 212 263 191 q 253 169 253 160 q 253 151 258 148 q 263 145 273 145 l 434 145 q 441 145 444 143 q 446 141 446 138 q 446 119 427 82 q 409 44 387 13 q 382 5 378 3 q 374 0 366 0 l 94 0 q 83 0 78 2 q 73 5 73 12 q 73 28 84 58 q 96 89 110 118 q 124 147 127 154 q 141 178 157 200 q 173 222 199 254 z"},"{":{"x_min":0,"x_max":357,"ha":357,"o":"m 173 146 l 173 13 q 173 -11 183 -28 q 193 -45 221 -53 l 309 -78 q 316 -81 319 -83 q 322 -85 322 -89 q 322 -93 317 -97 q 312 -102 304 -107 q 278 -123 258 -133 q 251 -136 241 -136 q 235 -136 211 -130 q 187 -124 167 -118 q 131 -108 111 -90 q 90 -71 82 -44 q 74 -16 74 27 l 74 164 q 74 182 72 193 q 70 204 62 214 q 53 224 35 232 q 25 237 25 247 q 25 252 28 256 q 30 261 35 263 q 53 271 62 281 q 70 292 72 302 q 74 312 74 331 l 74 467 q 74 530 100 567 q 126 604 183 615 q 209 620 256 625 q 303 630 312 630 q 322 630 322 624 q 322 619 318 613 q 314 607 313 605 q 305 594 285 570 q 279 564 275 561 q 271 558 266 557 q 260 555 241 551 q 223 546 212 544 q 187 538 180 520 q 172 502 172 473 l 172 348 q 172 324 167 309 q 161 293 151 282 q 141 271 121 255 q 120 255 118 252 q 115 250 115 247 q 115 244 116 242 q 118 240 119 239 q 121 238 121 238 q 141 223 151 212 q 162 201 167 185 q 173 169 173 146 z"},"9":{"x_min":0,"x_max":504,"ha":504,"o":"m 208 147 q 237 191 247 207 q 250 212 250 214 q 250 219 243 219 q 241 218 229 215 q 216 211 202 211 q 140 211 89 262 q 66 286 55 315 q 45 345 45 381 q 45 409 56 441 q 67 472 82 498 q 96 524 107 537 q 136 572 175 599 q 213 625 269 625 q 303 625 342 610 q 381 594 413 563 q 442 535 453 500 q 464 465 464 424 q 464 397 457 374 q 450 350 438 325 q 416 276 372 202 q 328 129 292 79 l 285 68 q 265 37 249 25 q 228 12 198 -1 q 169 -15 139 -21 q 136 -22 132 -22 q 124 -22 119 -18 q 115 -14 115 -9 q 115 -2 123 11 q 131 24 132 27 q 143 48 165 82 q 187 115 208 147 z m 332 405 q 332 421 324 440 q 316 459 302 472 q 289 483 274 488 q 258 493 238 493 q 204 493 187 474 q 167 452 167 418 q 167 391 178 370 q 189 350 209 340 q 228 329 250 329 q 264 329 279 333 q 293 337 303 344 q 317 354 324 369 q 332 385 332 405 z"}," ":{"x_min":0,"x_max":205,"ha":205,"o":""},"I":{"x_min":0,"x_max":327,"ha":327,"o":"m 31 36 q 62 42 80 50 q 98 59 98 65 l 98 549 q 98 556 81 565 q 63 573 31 580 l 31 615 l 287 615 l 287 580 q 255 573 237 565 q 220 557 220 549 l 220 65 q 220 59 237 50 q 254 42 287 36 l 287 0 l 31 0 z"},"H":{"x_min":0,"x_max":683,"ha":683,"o":"m 21 36 q 53 42 70 50 q 88 59 88 65 l 88 549 q 88 556 71 565 q 54 573 21 580 l 21 615 l 277 615 l 277 580 q 245 573 228 565 q 210 557 210 549 l 210 352 l 464 352 l 464 549 q 464 556 447 565 q 430 573 397 580 l 397 615 l 653 615 l 653 580 q 621 573 604 565 q 586 557 586 549 l 586 65 q 586 59 603 50 q 621 42 653 36 l 653 0 l 397 0 l 397 36 q 429 42 446 50 q 464 59 464 65 l 464 293 l 210 293 l 210 65 q 210 59 227 50 q 245 42 277 36 l 277 0 l 21 0 z"},"4":{"x_min":0,"x_max":504,"ha":504,"o":"m 242 169 l 92 169 q 69 169 54 187 q 39 204 39 230 q 39 264 58 320 q 77 376 99 421 q 145 506 188 547 q 223 579 284 611 q 318 628 332 628 q 340 628 347 622 q 354 615 355 604 q 358 564 361 463 q 364 362 365 322 q 365 317 367 315 q 369 313 376 313 l 443 313 q 458 313 458 296 q 458 285 451 260 q 443 234 434 210 q 424 185 417 175 q 414 169 405 169 l 371 169 q 366 169 364 163 q 361 156 361 146 l 361 94 q 361 79 355 67 q 324 16 294 -14 q 290 -19 287 -20 q 284 -22 278 -22 q 263 -22 263 8 l 262 79 q 260 137 260 149 q 260 160 255 165 q 251 169 242 169 z m 239 313 q 248 313 252 317 q 255 320 255 332 q 255 349 252 398 q 249 446 246 468 q 246 475 244 479 q 243 482 239 482 q 232 482 217 471 q 202 461 188 445 q 173 428 166 412 q 160 397 155 375 q 151 353 151 333 q 151 323 157 318 q 164 313 177 313 z"},"D":{"x_min":0,"x_max":637,"ha":637,"o":"m 21 0 l 21 36 q 53 42 70 50 q 88 59 88 65 l 88 565 l 21 556 l 15 601 q 63 613 141 621 q 219 630 282 630 q 381 630 452 594 q 522 559 559 492 q 596 424 596 330 q 596 215 553 141 q 509 67 442 33 q 375 0 302 0 z m 210 90 q 210 79 211 75 q 214 63 229 58 q 245 52 284 52 q 325 52 367 80 q 409 108 437 167 q 465 225 465 311 q 465 441 409 510 q 354 578 247 578 q 235 578 210 577 z"},"^":{"x_min":0,"x_max":505,"ha":505,"o":"m 211 604 q 203 584 175 524 q 148 463 133 431 q 113 389 91 344 q 69 299 61 283 q 58 276 58 271 q 58 266 64 262 l 115 238 q 117 237 118 237 q 120 236 122 236 q 129 236 133 245 q 141 263 161 308 q 181 354 198 392 l 254 509 l 311 392 q 322 369 345 316 q 368 263 376 245 q 379 235 386 235 q 387 235 389 236 q 392 237 393 238 l 440 260 q 450 265 450 272 q 450 276 448 283 q 439 299 418 344 q 396 389 376 431 q 361 463 333 524 q 306 584 297 604 q 295 609 292 611 q 290 613 284 613 l 229 613 q 221 613 217 611 q 213 609 211 604 z"},"0":{"x_min":0,"x_max":505,"ha":505,"o":"m 82 484 q 98 531 127 566 q 156 600 185 614 q 215 627 249 627 q 283 627 316 611 q 349 594 378 560 q 414 520 430 454 q 447 388 447 310 q 447 246 426 175 q 406 103 369 58 q 337 18 308 1 q 280 -16 245 -16 q 173 -16 119 53 q 103 73 88 111 q 73 149 62 202 q 52 255 52 316 q 52 360 61 403 q 70 447 82 484 z m 314 146 q 322 159 326 187 q 331 214 331 243 q 331 272 324 323 q 318 373 312 400 q 308 420 297 440 q 287 460 272 469 q 265 475 248 482 q 231 488 211 488 q 198 488 188 479 q 179 470 174 452 q 170 432 167 399 q 165 366 165 343 q 165 292 172 244 q 179 196 192 172 q 205 148 226 137 q 248 126 273 126 q 289 126 299 130 q 309 134 314 146 z"},"F":{"x_min":0,"x_max":507,"ha":507,"o":"m 21 36 q 53 42 70 50 q 88 59 88 65 l 88 549 q 88 556 71 565 q 54 573 21 580 l 21 615 l 456 615 l 475 600 q 474 574 468 528 q 461 482 456 464 l 418 464 q 415 557 378 557 l 210 557 l 210 359 l 389 359 l 407 342 q 396 324 384 306 q 371 288 361 280 q 346 295 325 301 q 304 307 265 307 l 210 307 l 210 65 q 210 51 292 36 l 292 0 l 21 0 z"},"`":{"x_min":0,"x_max":319,"ha":319,"o":"m -8 692 l 6 719 q 26 724 65 730 q 104 737 114 738 l 221 530 q 215 525 201 518 q 188 511 179 508 z"},"k":{"x_min":0,"x_max":551,"ha":551,"o":"m 23 36 q 59 45 73 51 q 88 57 88 65 l 88 618 q 88 649 83 661 q 79 673 68 676 q 57 680 23 684 l 23 718 q 77 726 115 734 q 153 743 184 757 l 205 737 l 205 261 l 333 375 q 357 397 357 407 q 357 414 347 416 q 338 418 320 418 l 320 454 l 538 454 l 538 418 q 491 414 453 385 l 304 272 l 480 73 q 491 61 502 56 q 514 51 531 51 q 537 51 552 52 l 555 16 q 524 9 487 2 q 449 -5 439 -5 q 418 -5 404 1 q 390 7 380 21 l 205 252 l 205 65 q 205 60 208 56 q 212 53 223 48 q 235 43 259 36 l 259 0 l 23 0 z"},"u":{"x_min":0,"x_max":563,"ha":563,"o":"m 366 66 q 311 18 273 2 q 235 -15 199 -15 q 146 -15 111 19 q 76 53 76 136 l 76 336 q 76 372 73 383 q 71 395 60 399 q 49 403 17 406 l 17 440 q 70 445 104 451 q 138 457 176 469 l 193 446 l 193 167 q 193 128 199 107 q 206 85 218 78 q 230 70 250 70 q 272 70 301 83 q 329 96 366 128 l 366 336 q 366 368 363 381 q 359 395 346 400 q 333 405 302 406 l 302 440 q 380 448 465 469 l 483 446 l 483 139 q 483 109 486 97 q 488 85 495 80 q 499 78 503 78 q 515 78 546 91 l 559 55 q 522 31 476 8 q 431 -15 419 -15 q 399 -15 385 3 q 372 21 366 66 z"},"]":{"x_min":0,"x_max":365,"ha":365,"o":"m 302 438 q 301 278 301 245 q 301 213 302 49 q 303 -29 303 -49 q 303 -66 297 -83 q 291 -100 278 -111 q 265 -122 246 -122 l 58 -122 q 49 -122 45 -120 q 41 -118 41 -112 q 41 -110 42 -106 q 44 -103 47 -99 q 60 -83 88 -61 q 100 -52 120 -52 l 188 -52 q 195 -52 201 -46 q 206 -41 206 -30 l 206 84 l 205 245 l 206 403 l 206 514 q 206 524 201 530 q 195 536 188 536 l 56 536 q 40 536 40 546 q 40 547 42 552 q 43 556 46 559 q 63 580 87 597 q 95 602 102 604 q 108 606 120 606 l 246 606 q 265 606 278 595 q 291 584 297 568 q 303 551 303 534 q 303 513 302 438 z"},"U":{"x_min":0,"x_max":668,"ha":668,"o":"m 574 256 q 574 172 543 111 q 512 50 458 18 q 403 -15 333 -15 q 263 -15 208 11 q 153 36 120 88 q 88 140 88 217 l 88 549 q 88 556 71 565 q 54 573 21 580 l 21 615 l 277 615 l 277 580 q 245 573 228 565 q 210 557 210 549 l 210 249 q 210 152 246 104 q 282 56 363 56 q 428 56 458 109 q 488 163 488 243 l 488 549 q 488 556 471 565 q 454 573 421 580 l 421 615 l 641 615 l 641 580 q 609 573 591 565 q 574 557 574 549 z"},"o":{"x_min":0,"x_max":525,"ha":525,"o":"m 32 217 q 32 282 63 340 q 94 398 149 433 q 205 469 272 469 q 338 469 388 439 q 438 409 466 356 q 493 303 493 237 q 493 173 460 115 q 427 57 372 21 q 316 -15 253 -15 q 188 -15 137 15 q 87 45 59 98 q 32 150 32 217 z m 155 231 q 155 181 171 138 q 186 96 212 71 q 237 46 267 46 q 323 46 347 88 q 370 130 370 215 q 370 267 356 311 q 342 355 316 381 q 291 408 258 408 q 202 408 178 361 q 155 314 155 231 z"},"N":{"x_min":0,"x_max":664,"ha":664,"o":"m 21 36 q 54 40 71 49 q 88 58 88 65 l 88 544 q 56 574 21 580 l 21 615 l 157 615 q 167 615 173 613 q 178 610 184 603 q 190 596 204 577 l 503 163 l 503 549 q 503 557 487 566 q 471 575 436 580 l 436 615 l 644 615 l 644 580 q 611 575 594 566 q 576 557 576 549 l 576 -15 q 532 -11 503 3 q 474 17 459 36 l 161 449 l 161 65 q 161 58 178 49 q 195 40 229 36 l 229 0 l 21 0 z"},"+":{"x_min":0,"x_max":505,"ha":505,"o":"m 77 237 q 68 237 65 240 q 62 244 62 250 l 62 302 q 62 309 65 312 q 68 316 77 316 q 89 315 128 315 q 167 314 215 313 l 212 453 q 212 464 226 464 l 278 464 q 284 464 288 461 q 291 458 291 451 q 291 436 290 390 q 289 344 289 313 q 322 313 370 314 q 417 315 432 316 q 438 316 441 313 q 444 311 444 302 l 444 250 q 444 244 441 240 q 438 237 430 237 l 289 240 l 291 97 q 291 89 288 86 q 284 83 278 83 l 226 83 q 219 83 216 86 q 212 89 212 97 l 215 240 z"},"G":{"x_min":0,"x_max":602,"ha":602,"o":"m 450 486 q 418 531 385 550 q 351 569 307 569 q 276 569 240 544 q 204 520 177 462 q 150 404 150 311 q 150 228 175 172 q 200 116 241 89 q 282 62 330 62 q 379 62 417 81 l 417 229 q 417 238 412 244 q 407 250 390 257 q 373 264 338 270 l 338 305 l 581 305 l 581 270 q 534 258 534 229 l 534 83 q 466 27 412 6 q 358 -15 308 -15 q 235 -15 170 19 q 106 53 66 121 q 27 188 27 284 q 27 390 71 469 q 115 547 193 588 q 270 630 367 630 q 390 630 421 624 q 453 618 484 606 q 515 595 535 580 q 539 577 529 555 q 519 534 504 510 q 489 486 480 479 z"},"q":{"x_min":0,"x_max":548,"ha":548,"o":"m 277 -199 q 322 -192 341 -185 q 360 -177 360 -168 l 360 67 q 315 22 280 4 q 245 -15 200 -15 q 160 -15 121 14 q 83 42 57 95 q 32 148 32 217 q 32 293 65 345 q 98 397 143 426 q 171 445 206 457 q 240 469 269 469 q 301 469 327 458 q 354 447 387 415 q 412 428 438 444 q 465 460 474 469 l 493 451 q 492 447 488 431 q 484 415 481 390 q 478 366 478 339 l 478 -168 q 478 -187 542 -199 l 542 -234 l 277 -234 z m 360 342 q 344 370 315 387 q 286 404 258 404 q 208 404 179 365 q 149 326 149 247 q 149 193 164 155 q 179 117 204 98 q 229 78 256 78 q 282 78 306 91 q 330 104 360 132 z"},"d":{"x_min":0,"x_max":561,"ha":561,"o":"m 367 71 q 335 39 312 21 q 289 2 265 -6 q 241 -15 210 -15 q 166 -15 125 14 q 83 42 58 95 q 32 147 32 217 q 32 282 62 340 q 93 398 147 434 q 201 469 269 469 q 294 469 317 463 q 339 457 364 440 l 364 607 q 364 649 361 663 q 358 677 345 683 q 333 689 297 691 l 297 725 q 346 730 390 739 q 433 748 462 757 l 481 739 l 481 146 q 481 113 483 99 q 486 85 492 81 q 496 79 502 79 q 514 79 543 91 l 557 56 q 514 27 470 6 q 426 -15 412 -15 q 377 -15 367 71 z m 261 404 q 210 404 179 364 q 149 324 149 243 q 149 194 165 156 q 181 119 207 98 q 232 78 260 78 q 286 78 309 91 q 333 104 364 131 l 364 345 q 346 374 320 389 q 293 404 261 404 z"},"1":{"x_min":0,"x_max":505,"ha":505,"o":"m 144 146 l 189 146 q 198 146 201 151 q 205 156 205 164 q 205 198 202 262 q 200 327 198 356 q 197 389 189 414 q 182 438 160 452 q 146 460 118 466 q 90 471 87 472 q 80 474 77 478 q 74 481 74 489 q 74 509 97 528 q 147 576 208 611 q 251 633 282 633 q 299 633 310 623 q 321 613 323 597 q 331 555 333 513 q 335 472 335 409 q 335 295 343 193 l 345 173 q 346 158 350 152 q 354 146 365 146 l 434 146 q 441 146 446 141 q 451 136 451 128 q 451 125 449 118 q 447 111 445 106 l 435 85 q 408 28 394 11 q 389 4 384 2 q 379 0 368 0 l 92 0 q 81 0 74 4 q 68 8 68 16 q 68 25 78 50 q 89 75 102 101 q 115 126 121 135 q 125 141 130 143 q 135 146 144 146 z"},"5":{"x_min":0,"x_max":505,"ha":505,"o":"m 138 140 q 146 140 155 136 q 174 128 197 122 q 220 116 241 116 q 270 116 287 134 q 304 152 304 176 q 304 193 297 210 q 290 228 278 236 q 268 244 252 247 q 236 250 208 250 l 140 250 q 125 250 116 256 q 108 263 106 279 q 99 319 97 358 q 95 396 95 474 q 95 493 106 522 q 116 551 134 578 q 151 606 169 622 q 176 628 182 628 q 187 628 189 625 q 191 623 192 619 q 193 616 194 615 q 199 601 205 596 q 212 591 227 591 l 413 591 q 426 591 432 587 q 438 583 438 573 q 438 552 423 513 q 408 474 395 454 q 391 446 384 443 q 377 441 357 441 l 239 441 q 230 441 226 438 q 223 435 223 426 q 223 419 224 406 q 225 394 225 388 q 225 381 228 379 q 231 377 240 377 l 276 377 q 285 377 303 374 q 321 370 342 362 q 363 354 377 342 q 433 296 433 224 q 433 190 421 156 q 409 122 392 94 q 375 67 361 51 q 328 14 294 -1 q 261 -16 222 -16 q 162 -16 81 17 q 72 21 69 24 q 66 27 66 31 q 66 36 76 57 q 87 79 101 101 q 115 124 124 133 q 128 137 131 138 q 133 140 138 140 z"}}}
